<svg id="Слой_2" data-name="Слой 2" xmlns="http://www.w3.org/2000/svg" viewBox="0 0 101 101"><title>Artboard 2 copy 5</title><path d="M83.56,39.56A1.5,1.5,0,0,0,82.5,37H67L79.53,12.88a1.5,1.5,0,0,0-2.66-1.38L63.61,37H41.75A18.87,18.87,0,0,0,9.39,25.1l-.06,0s0,.06-.06.09A18.81,18.81,0,0,0,9,51a1.36,1.36,0,0,0,.95,1,18.82,18.82,0,0,0,25,.85L51,68.92V94H37.5a1.5,1.5,0,0,0,0,3h31a1.5,1.5,0,0,0,0-3H54V69.12ZM24,22.45A15.91,15.91,0,0,1,38.75,37H24Zm-3,.07V34.68l-8.44-8.44A15.83,15.83,0,0,1,21,22.52ZM7,38.3a15.82,15.82,0,0,1,3.48-9.9l10,10-9.91,9.92A15.82,15.82,0,0,1,7,38.3ZM22.91,54.21a15.83,15.83,0,0,1-10.24-3.75l9.93-9.93L32.81,50.73A15.85,15.85,0,0,1,22.91,54.21ZM52.84,66a1.49,1.49,0,0,0-.34,0l-.16,0-26-26H78.88Z"/></svg>